<?xml version="1.0" encoding="UTF-8" standalone="no"?>
<!-- Created with Inkscape (http://www.inkscape.org/) -->

<svg
   xmlns:dc="http://purl.org/dc/elements/1.1/"
   xmlns:cc="http://creativecommons.org/ns#"
   xmlns:rdf="http://www.w3.org/1999/02/22-rdf-syntax-ns#"
   xmlns:svg="http://www.w3.org/2000/svg"
   xmlns="http://www.w3.org/2000/svg"
   xmlns:sodipodi="http://sodipodi.sourceforge.net/DTD/sodipodi-0.dtd"
   xmlns:inkscape="http://www.inkscape.org/namespaces/inkscape"
   width="420mm"
   height="297mm"
   viewBox="0 0 1488.189 1052.3622"
   id="svg7712"
   version="1.1"
   inkscape:version="0.91 r13725"
   sodipodi:docname="bottom_panel.svg">
  <defs
     id="defs7714" />
  <sodipodi:namedview
     id="base"
     pagecolor="#ffffff"
     bordercolor="#666666"
     borderopacity="1.0"
     inkscape:pageopacity="0.0"
     inkscape:pageshadow="2"
     inkscape:zoom="0.35"
     inkscape:cx="-283.57143"
     inkscape:cy="520"
     inkscape:document-units="px"
     inkscape:current-layer="layer1"
     showgrid="false"
     inkscape:window-width="2560"
     inkscape:window-height="1378"
     inkscape:window-x="-8"
     inkscape:window-y="-8"
     inkscape:window-maximized="1" />
  <metadata
     id="metadata7717">
    <rdf:RDF>
      <cc:Work
         rdf:about="">
        <dc:format>image/svg+xml</dc:format>
        <dc:type
           rdf:resource="http://purl.org/dc/dcmitype/StillImage" />
        <dc:title></dc:title>
      </cc:Work>
    </rdf:RDF>
  </metadata>
  <g
     inkscape:label="Layer 1"
     inkscape:groupmode="layer"
     id="layer1"
     transform="translate(0,-1.6535434e-6)">
    <path
       inkscape:connector-curvature="0"
       id="path11137"
       d="m 11.349833,12.879617 35.59252,0 0,21.25985 35.11418,0 0,-21.25985 35.751957,0 0,21.25985 35.11418,0 0,-21.25985 35.75197,0 0,21.25985 35.11417,0 0,-21.25985 35.75197,0 0,21.25985 35.11417,0 0,-21.25985 35.75197,0 0,21.25985 35.11417,0 0,-21.25985 35.75197,0 0,21.25985 35.11418,0 0,-21.25985 35.75196,0 0,21.25985 35.11418,0 0,-21.25985 35.75197,0 0,21.25985 35.11417,0 0,-21.25985 35.75202,0 0,21.25985 35.1141,0 0,-21.25985 35.752,0 0,21.25985 35.1142,0 0,-21.25985 35.7519,0 0,21.25985 35.1142,0 0,-21.25985 35.7519,0 0,21.25985 35.1142,0 0,-21.25985 35.752,0 0,21.25985 35.1141,0 0,-21.25985 35.752,0 0,21.25985 35.11416,0 0,-21.25985 35.7521,0 0,21.25985 35.1141,0 0,-21.25985 35.752,0 0,21.25985 35.1142,0 0,-21.25985 35.7519,0 0,21.25985 35.1142,0 0,-21.25985 35.5925,0"
       style="fill:none;stroke:#000000;stroke-width:0.07086614;stroke-miterlimit:4.94117641;stroke-dasharray:none"
       inkscape:label="part" />
    <path
       inkscape:connector-curvature="0"
       id="path11139"
       d="m 620.79864,50.012707 0,36.65474 21.2599,0 0,-36.65474 -21.2599,0"
       style="fill:none;stroke:#000000;stroke-width:0.07086614;stroke-miterlimit:4.94117641;stroke-dasharray:none"
       inkscape:label="part" />
    <path
       inkscape:connector-curvature="0"
       id="path11141"
       d="m 620.79864,123.95999 0,36.65474 21.2599,0 0,-36.65474 -21.2599,0"
       style="fill:none;stroke:#000000;stroke-width:0.07086614;stroke-miterlimit:4.94117641;stroke-dasharray:none"
       inkscape:label="part" />
    <path
       inkscape:connector-curvature="0"
       id="path11143"
       d="m 620.79864,197.90727 0,36.65474 21.2599,0 0,-36.65474 -21.2599,0"
       style="fill:none;stroke:#000000;stroke-width:0.07086614;stroke-miterlimit:4.94117641;stroke-dasharray:none"
       inkscape:label="part" />
    <path
       inkscape:connector-curvature="0"
       id="path11145"
       d="m 620.79864,271.85455 0,36.65474 21.2599,0 0,-36.65474 -21.2599,0"
       style="fill:none;stroke:#000000;stroke-width:0.07086614;stroke-miterlimit:4.94117641;stroke-dasharray:none"
       inkscape:label="part" />
    <path
       inkscape:connector-curvature="0"
       id="path11147"
       d="m 620.79864,345.80182 0,36.65475 21.2599,0 0,-36.65475 -21.2599,0"
       style="fill:none;stroke:#000000;stroke-width:0.07086614;stroke-miterlimit:4.94117641;stroke-dasharray:none"
       inkscape:label="part" />
    <path
       inkscape:connector-curvature="0"
       id="path11149"
       d="m 620.79864,419.7491 0,36.65474 21.2599,0 0,-36.65474 -21.2599,0"
       style="fill:none;stroke:#000000;stroke-width:0.07086614;stroke-miterlimit:4.94117641;stroke-dasharray:none"
       inkscape:label="part" />
    <path
       inkscape:connector-curvature="0"
       id="path11151"
       d="m 620.79864,493.69638 0,36.65474 21.2599,0 0,-36.65474 -21.2599,0"
       style="fill:none;stroke:#000000;stroke-width:0.07086614;stroke-miterlimit:4.94117641;stroke-dasharray:none"
       inkscape:label="part" />
    <path
       inkscape:connector-curvature="0"
       id="path11153"
       d="m 620.79864,567.64366 0,36.65474 21.2599,0 0,-36.65474 -21.2599,0"
       style="fill:none;stroke:#000000;stroke-width:0.07086614;stroke-miterlimit:4.94117641;stroke-dasharray:none"
       inkscape:label="part" />
    <path
       inkscape:connector-curvature="0"
       id="path11155"
       d="m 620.79864,641.59094 0,36.65474 21.2599,0 0,-36.65474 -21.2599,0"
       style="fill:none;stroke:#000000;stroke-width:0.07086614;stroke-miterlimit:4.94117641;stroke-dasharray:none"
       inkscape:label="part" />
    <path
       inkscape:connector-curvature="0"
       id="path11157"
       d="m 620.79864,715.53822 0,36.65474 21.2599,0 0,-36.65474 -21.2599,0"
       style="fill:none;stroke:#000000;stroke-width:0.07086614;stroke-miterlimit:4.94117641;stroke-dasharray:none"
       inkscape:label="part" />
    <path
       inkscape:connector-curvature="0"
       id="path11159"
       d="m 620.79864,789.48547 0,36.6548 21.2599,0 0,-36.6548 -21.2599,0"
       style="fill:none;stroke:#000000;stroke-width:0.07086614;stroke-miterlimit:4.94117641;stroke-dasharray:none"
       inkscape:label="part" />
    <path
       inkscape:connector-curvature="0"
       id="path11161"
       d="m 1251.5073,12.879617 0,37.13309 -21.2598,0 0,36.65474 21.2598,0 0,37.292543 -21.2598,0 0,36.65474 21.2598,0 0,37.29254 -21.2598,0 0,36.65474 21.2598,0 0,37.29254 -21.2598,0 0,36.65474 21.2598,0 0,37.29253 -21.2598,0 0,36.65475 21.2598,0 0,37.29253 -21.2598,0 0,36.65474 21.2598,0 0,37.29254 -21.2598,0 0,36.65474 21.2598,0 0,37.29254 -21.2598,0 0,36.65474 21.2598,0 0,37.29254 -21.2598,0 0,36.65474 21.2598,0 0,37.29254 -21.2598,0 0,36.65474 21.2598,0 0,37.29251 -21.2598,0 0,36.6548 21.2598,0 0,37.1331"
       style="fill:none;stroke:#000000;stroke-width:0.07086614;stroke-miterlimit:4.94117641;stroke-dasharray:none"
       inkscape:label="part" />
    <path
       inkscape:connector-curvature="0"
       id="path11163"
       d="m 1251.5073,863.27337 -35.5925,0 0,-21.2599 -35.1142,0 0,21.2599 -35.7519,0 0,-21.2599 -35.1142,0 0,21.2599 -35.752,0 0,-21.2599 -35.1141,0 0,21.2599 -35.7521,0 0,-21.2599 -35.11416,0 0,21.2599 -35.752,0 0,-21.2599 -35.1141,0 0,21.2599 -35.752,0 0,-21.2599 -35.1142,0 0,21.2599 -35.7519,0 0,-21.2599 -35.1142,0 0,21.2599 -35.7519,0 0,-21.2599 -35.1142,0 0,21.2599 -35.752,0 0,-21.2599 -35.1141,0 0,21.2599 -35.75202,0 0,-21.2599 -35.11417,0 0,21.2599 -35.75197,0 0,-21.2599 -35.11418,0 0,21.2599 -35.75196,0 0,-21.2599 -35.11418,0 0,21.2599 -35.75197,0 0,-21.2599 -35.11417,0 0,21.2599 -35.75197,0 0,-21.2599 -35.11417,0 0,21.2599 -35.75197,0 0,-21.2599 -35.11417,0 0,21.2599 -35.75197,0 0,-21.2599 -35.11418,0 0,21.2599 -35.751957,0 0,-21.2599 -35.11418,0 0,21.2599 -35.59252,0"
       style="fill:none;stroke:#000000;stroke-width:0.07086614;stroke-miterlimit:4.94117641;stroke-dasharray:none"
       inkscape:label="part" />
    <path
       inkscape:connector-curvature="0"
       id="path11165"
       d="m 11.349833,863.27337 0,-37.1331 21.25985,0 0,-36.6548 -21.25985,0 0,-37.29251 21.25985,0 0,-36.65474 -21.25985,0 0,-37.29254 21.25985,0 0,-36.65474 -21.25985,0 0,-37.29254 21.25985,0 0,-36.65474 -21.25985,0 0,-37.29254 21.25985,0 0,-36.65474 -21.25985,0 0,-37.29254 21.25985,0 0,-36.65474 -21.25985,0 0,-37.29253 21.25985,0 0,-36.65475 -21.25985,0 0,-37.29253 21.25985,0 0,-36.65474 -21.25985,0 0,-37.29254 21.25985,0 0,-36.65474 -21.25985,0 0,-37.29254 21.25985,0 0,-36.65474 -21.25985,0 0,-37.292543 21.25985,0 0,-36.65474 -21.25985,0 0,-37.13309"
       style="fill:none;stroke:#000000;stroke-width:0.07086614;stroke-miterlimit:4.94117641;stroke-dasharray:none"
       inkscape:label="part" />
    <circle
       style="opacity:1;fill:none;fill-opacity:1;fill-rule:nonzero;stroke:#000000;stroke-width:0.07086614;stroke-linecap:butt;stroke-linejoin:round;stroke-miterlimit:4.94117641;stroke-dasharray:none;stroke-opacity:1"
       id="path7397"
       cx="1155.4952"
       cy="48.582737"
       r="7.0511813" />
    <circle
       style="opacity:1;fill:none;fill-opacity:1;fill-rule:nonzero;stroke:#000000;stroke-width:0.07086614;stroke-linecap:butt;stroke-linejoin:round;stroke-miterlimit:4.94117641;stroke-dasharray:none;stroke-opacity:1"
       id="path7397-8"
       cx="1027.9362"
       cy="48.582737"
       r="7.0511813" />
    <circle
       style="opacity:1;fill:none;fill-opacity:1;fill-rule:nonzero;stroke:#000000;stroke-width:0.07086614;stroke-linecap:butt;stroke-linejoin:round;stroke-miterlimit:4.94117641;stroke-dasharray:none;stroke-opacity:1"
       id="path7397-1"
       cx="1155.4952"
       cy="360.39368"
       r="7.0511813" />
    <circle
       style="opacity:1;fill:none;fill-opacity:1;fill-rule:nonzero;stroke:#000000;stroke-width:0.07086614;stroke-linecap:butt;stroke-linejoin:round;stroke-miterlimit:4.94117641;stroke-dasharray:none;stroke-opacity:1"
       id="path7397-8-4"
       cx="1027.9362"
       cy="360.39368"
       r="7.0511813" />
  </g>
</svg>
