<?xml version="1.0" encoding="UTF-8" standalone="no"?>
<!-- Created with Inkscape (http://www.inkscape.org/) -->

<svg
   xmlns:dc="http://purl.org/dc/elements/1.1/"
   xmlns:cc="http://creativecommons.org/ns#"
   xmlns:rdf="http://www.w3.org/1999/02/22-rdf-syntax-ns#"
   xmlns:svg="http://www.w3.org/2000/svg"
   xmlns="http://www.w3.org/2000/svg"
   xmlns:sodipodi="http://sodipodi.sourceforge.net/DTD/sodipodi-0.dtd"
   xmlns:inkscape="http://www.inkscape.org/namespaces/inkscape"
   width="210mm"
   height="297mm"
   viewBox="0 0 744.09448819 1052.3622047"
   id="svg2"
   version="1.1"
   inkscape:version="0.91 r13725"
   sodipodi:docname="box_layout_1.svg">
  <sodipodi:namedview
     id="base"
     pagecolor="#ffffff"
     bordercolor="#666666"
     borderopacity="1.0"
     inkscape:pageopacity="0.0"
     inkscape:pageshadow="2"
     inkscape:zoom="0.98994949"
     inkscape:cx="724.6671"
     inkscape:cy="-585.66736"
     inkscape:document-units="mm"
     inkscape:current-layer="svg2"
     showgrid="false"
     inkscape:window-width="2560"
     inkscape:window-height="1378"
     inkscape:window-x="-8"
     inkscape:window-y="-8"
     inkscape:window-maximized="1"
     showguides="false" />
  <defs
     id="defs4" />
  <metadata
     id="metadata7">
    <rdf:RDF>
      <cc:Work
         rdf:about="">
        <dc:format>image/svg+xml</dc:format>
        <dc:type
           rdf:resource="http://purl.org/dc/dcmitype/StillImage" />
        <dc:title />
      </cc:Work>
    </rdf:RDF>
  </metadata>
  <g
     id="layer1"
     inkscape:groupmode="layer"
     inkscape:label="Layer 1" />
  <g
     id="g11107"
     inkscape:groupmode="layer"
     inkscape:label="newlayer" />
  <path
     id="path11109"
     d="M 226.771653542,1105.51181102 L 262.045275586,1105.51181102 L 262.045275586,1084.2519685 L 297.797244096,1084.2519685 L 297.797244096,1105.51181102 L 332.911417318,1105.51181102 L 332.911417318,1084.2519685 L 368.663385828,1084.2519685 L 368.663385828,1105.51181102 L 403.77755905,1105.51181102 L 403.77755905,1084.2519685 L 439.52952756,1084.2519685 L 439.52952756,1105.51181102 L 474.643700782,1105.51181102 L 474.643700782,1084.2519685 L 510.395669292,1084.2519685 L 510.395669292,1105.51181102 L 545.509842514,1105.51181102 L 545.509842514,1084.2519685 L 581.261811024,1084.2519685 L 581.261811024,1105.51181102 L 616.375984246,1105.51181102 L 616.375984246,1084.2519685 L 652.127952756,1084.2519685 L 652.127952756,1105.51181102 L 687.242125978,1105.51181102 L 687.242125978,1084.2519685 L 722.994094488,1084.2519685 L 722.994094488,1105.51181102 L 758.10826771,1105.51181102 L 758.10826771,1084.2519685 L 793.86023622,1084.2519685 L 793.86023622,1105.51181102 L 828.974409442,1105.51181102 L 828.974409442,1084.2519685 L 864.726377952,1084.2519685 L 864.726377952,1105.51181102 L 899.840551174,1105.51181102 L 899.840551174,1084.2519685 L 935.592519684,1084.2519685 L 935.592519684,1105.51181102 L 970.706692906,1105.51181102 L 970.706692906,1084.2519685 L 1006.45866142,1084.2519685 L 1006.45866142,1105.51181102 L 1041.57283464,1105.51181102 L 1041.57283464,1084.2519685 L 1077.32480315,1084.2519685 L 1077.32480315,1105.51181102 L 1112.43897637,1105.51181102 L 1112.43897637,1084.2519685 L 1148.19094488,1084.2519685 L 1148.19094488,1105.51181102 L 1183.3051181,1105.51181102 L 1183.3051181,1084.2519685 L 1219.05708661,1084.2519685 L 1219.05708661,1105.51181102 L 1254.17125983,1105.51181102 L 1254.17125983,1084.2519685 L 1289.92322834,1084.2519685 L 1289.92322834,1105.51181102 L 1325.03740157,1105.51181102 L 1325.03740157,1084.2519685 L 1360.78937008,1084.2519685 L 1360.78937008,1105.51181102 L 1395.9035433,1105.51181102 L 1395.9035433,1084.2519685 L 1431.65551181,1084.2519685 L 1431.65551181,1105.51181102 L 1466.92913385,1105.51181102 "
     style="stroke:#000000;stroke-width:0.07086614;fill:none;stroke-miterlimit:4.94117641;stroke-dasharray:none"
     inkscape:label="part" />
  <path
     id="path11111"
     d="M 836.220472438,1126.93110236 L 836.220472438,1169.13188976 L 857.480314957,1169.13188976 L 857.480314957,1126.93110236 L 836.220472438,1126.93110236 "
     style="stroke:#000000;stroke-width:0.07086614;fill:none;stroke-miterlimit:4.94117641;stroke-dasharray:none"
     inkscape:label="part" />
  <path
     id="path11113"
     d="M 836.220472438,1211.97047244 L 836.220472438,1254.17125983 L 857.480314957,1254.17125983 L 857.480314957,1211.97047244 L 836.220472438,1211.97047244 "
     style="stroke:#000000;stroke-width:0.07086614;fill:none;stroke-miterlimit:4.94117641;stroke-dasharray:none"
     inkscape:label="part" />
  <path
     id="path11115"
     d="M 1466.92913385,1105.51181102 L 1466.92913385,1126.93110236 L 1445.66929133,1126.93110236 L 1445.66929133,1169.13188976 L 1466.92913385,1169.13188976 L 1466.92913385,1211.97047244 L 1445.66929133,1211.97047244 L 1445.66929133,1254.17125983 L 1466.92913385,1254.17125983 L 1466.92913385,1275.59055118 "
     style="stroke:#000000;stroke-width:0.07086614;fill:none;stroke-miterlimit:4.94117641;stroke-dasharray:none"
     inkscape:label="part" />
  <path
     id="path11119"
     d="M 226.771653542,1275.59055118 L 226.771653542,1254.17125983 L 248.031496062,1254.17125983 L 248.031496062,1211.97047244 L 226.771653542,1211.97047244 L 226.771653542,1169.13188976 L 248.031496062,1169.13188976 L 248.031496062,1126.93110236 L 226.771653542,1126.93110236 L 226.771653542,1105.51181102 "
     style="stroke:#000000;stroke-width:0.07086614;fill:none;stroke-miterlimit:4.94117641;stroke-dasharray:none"
     inkscape:label="part" />
  <path
     id="path11121"
     d="M 28.3464566928,248.031496062 L 49.4468503905,248.031496062 L 49.4468503905,226.771653542 L 92.2854330735,226.771653542 L 92.2854330735,248.031496062 L 134.486220469,248.031496062 L 134.486220469,226.771653542 L 177.324803152,226.771653542 L 177.324803152,248.031496062 L 198.42519685,248.031496062 "
     style="stroke:#000000;stroke-width:0.07086614;fill:none;stroke-miterlimit:4.94117641;stroke-dasharray:none"
     inkscape:label="part" />
  <path
     id="path11123"
     d="M 198.42519685,248.031496062 L 198.42519685,263.585843885 L 219.685039369,263.585843885 L 219.685039369,300.878380693 L 198.42519685,300.878380693 L 198.42519685,337.533122214 L 219.685039369,337.533122214 L 219.685039369,374.825659022 L 198.42519685,374.825659022 L 198.42519685,411.480400543 L 219.685039369,411.480400543 L 219.685039369,448.772937351 L 198.42519685,448.772937351 L 198.42519685,485.427678872 L 219.685039369,485.427678872 L 219.685039369,522.720215681 L 198.42519685,522.720215681 L 198.42519685,559.374957201 L 219.685039369,559.374957201 L 219.685039369,596.66749401 L 198.42519685,596.66749401 L 198.42519685,633.32223553 L 219.685039369,633.32223553 L 219.685039369,670.614772339 L 198.42519685,670.614772339 L 198.42519685,707.269513859 L 219.685039369,707.269513859 L 219.685039369,744.562050668 L 198.42519685,744.562050668 L 198.42519685,781.216792188 L 219.685039369,781.216792188 L 219.685039369,818.509328997 L 198.42519685,818.509328997 L 198.42519685,855.164070517 L 219.685039369,855.164070517 L 219.685039369,892.456607326 L 198.42519685,892.456607326 L 198.42519685,929.111348846 L 219.685039369,929.111348846 L 219.685039369,966.403885655 L 198.42519685,966.403885655 L 198.42519685,1003.05862718 L 219.685039369,1003.05862718 L 219.685039369,1040.35116398 L 198.42519685,1040.35116398 L 198.42519685,1055.90551181 "
     style="stroke:#000000;stroke-width:0.07086614;fill:none;stroke-miterlimit:4.94117641;stroke-dasharray:none"
     inkscape:label="part" />
  <path
     id="path11125"
     d="M 198.42519685,1055.90551181 L 177.324803152,1055.90551181 L 177.324803152,1077.16535433 L 134.486220469,1077.16535433 L 134.486220469,1055.90551181 L 92.2854330735,1055.90551181 L 92.2854330735,1077.16535433 L 49.4468503905,1077.16535433 L 49.4468503905,1055.90551181 L 28.3464566928,1055.90551181 "
     style="stroke:#000000;stroke-width:0.07086614;fill:none;stroke-miterlimit:4.94117641;stroke-dasharray:none"
     inkscape:label="part" />
  <path
     id="path11131"
     d="m 171.13553,1342.0266 0,15.5544 21.25984,0 0,37.2925 -21.25984,0 0,36.6547 21.25984,0 0,37.2926 -21.25984,0 0,36.6547 21.25984,0 0,37.2926 -21.25984,0 0,36.6547 21.25984,0 0,37.2925 -21.25984,0 0,36.6548 21.25984,0 0,37.2925 -21.25984,0 0,36.6548 21.25984,0 0,37.2925 -21.25984,0 0,36.6547 21.25984,0 0,37.2926 -21.25984,0 0,36.6547 21.25984,0 0,37.2925 -21.25984,0 0,36.6548 21.25984,0 0,37.2925 -21.25984,0 0,36.6548 21.25984,0 0,37.2925 -21.25984,0 0,36.6547 21.25984,0 0,37.2926 -21.25984,0 0,15.5543"
     style="fill:none;stroke:#000000;stroke-width:0.07086614;stroke-miterlimit:4.94117641;stroke-dasharray:none"
     inkscape:label="part"
     inkscape:connector-curvature="0" />
  <path
     id="path11133"
     d="m 171.13553,2149.9006 -21.10039,0 0,21.2599 -42.83858,0 0,-21.2599 -42.200792,0 0,21.2599 -42.838583,0 0,-21.2599 -21.1003934,0 -10e-8,-99.8828 159.4488185,0 0,-141.7323 -159.4488185,0 0,-386.2023 120.2081485,0 0,-78.7919 -120.2081485,0 10e-8,-101.2647 21.1003934,0 0,-21.2598 42.838583,0 0,21.2598 42.200792,0 0,-21.2598 42.83858,0 0,21.2598 21.10039,0"
     style="fill:none;stroke:#000000;stroke-width:0.07086614;stroke-miterlimit:4.94117641;stroke-dasharray:none"
     inkscape:label="part"
     inkscape:connector-curvature="0"
     sodipodi:nodetypes="cccccccccccccccccccccccccccc" />
  <path
     id="path11137"
     d="M 226.771653542,226.771653542 L 262.36417323,226.771653542 L 262.36417323,248.031496062 L 297.478346452,248.031496062 L 297.478346452,226.771653542 L 333.230314962,226.771653542 L 333.230314962,248.031496062 L 368.344488184,248.031496062 L 368.344488184,226.771653542 L 404.096456694,226.771653542 L 404.096456694,248.031496062 L 439.210629916,248.031496062 L 439.210629916,226.771653542 L 474.962598426,226.771653542 L 474.962598426,248.031496062 L 510.076771648,248.031496062 L 510.076771648,226.771653542 L 545.828740158,226.771653542 L 545.828740158,248.031496062 L 580.94291338,248.031496062 L 580.94291338,226.771653542 L 616.69488189,226.771653542 L 616.69488189,248.031496062 L 651.809055112,248.031496062 L 651.809055112,226.771653542 L 687.561023622,226.771653542 L 687.561023622,248.031496062 L 722.675196844,248.031496062 L 722.675196844,226.771653542 L 758.427165354,226.771653542 L 758.427165354,248.031496062 L 793.541338576,248.031496062 L 793.541338576,226.771653542 L 829.293307086,226.771653542 L 829.293307086,248.031496062 L 864.407480308,248.031496062 L 864.407480308,226.771653542 L 900.159448818,226.771653542 L 900.159448818,248.031496062 L 935.27362204,248.031496062 L 935.27362204,226.771653542 L 971.02559055,226.771653542 L 971.02559055,248.031496062 L 1006.13976377,248.031496062 L 1006.13976377,226.771653542 L 1041.89173228,226.771653542 L 1041.89173228,248.031496062 L 1077.0059055,248.031496062 L 1077.0059055,226.771653542 L 1112.75787401,226.771653542 L 1112.75787401,248.031496062 L 1147.87204724,248.031496062 L 1147.87204724,226.771653542 L 1183.62401575,226.771653542 L 1183.62401575,248.031496062 L 1218.73818897,248.031496062 L 1218.73818897,226.771653542 L 1254.49015748,226.771653542 L 1254.49015748,248.031496062 L 1289.6043307,248.031496062 L 1289.6043307,226.771653542 L 1325.35629921,226.771653542 L 1325.35629921,248.031496062 L 1360.47047243,248.031496062 L 1360.47047243,226.771653542 L 1396.22244094,226.771653542 L 1396.22244094,248.031496062 L 1431.33661416,248.031496062 L 1431.33661416,226.771653542 L 1466.92913385,226.771653542 "
     style="stroke:#000000;stroke-width:0.07086614;fill:none;stroke-miterlimit:4.94117641;stroke-dasharray:none"
     inkscape:label="part" />
  <path
     id="path11139"
     d="M 836.220472438,263.904741529 L 836.220472438,300.55948305 L 857.480314957,300.55948305 L 857.480314957,263.904741529 L 836.220472438,263.904741529 "
     style="stroke:#000000;stroke-width:0.07086614;fill:none;stroke-miterlimit:4.94117641;stroke-dasharray:none"
     inkscape:label="part" />
  <path
     id="path11141"
     d="M 836.220472438,337.852019858 L 836.220472438,374.506761379 L 857.480314957,374.506761379 L 857.480314957,337.852019858 L 836.220472438,337.852019858 "
     style="stroke:#000000;stroke-width:0.07086614;fill:none;stroke-miterlimit:4.94117641;stroke-dasharray:none"
     inkscape:label="part" />
  <path
     id="path11143"
     d="M 836.220472438,411.799298187 L 836.220472438,448.454039708 L 857.480314957,448.454039708 L 857.480314957,411.799298187 L 836.220472438,411.799298187 "
     style="stroke:#000000;stroke-width:0.07086614;fill:none;stroke-miterlimit:4.94117641;stroke-dasharray:none"
     inkscape:label="part" />
  <path
     id="path11145"
     d="M 836.220472438,485.746576516 L 836.220472438,522.401318037 L 857.480314957,522.401318037 L 857.480314957,485.746576516 L 836.220472438,485.746576516 "
     style="stroke:#000000;stroke-width:0.07086614;fill:none;stroke-miterlimit:4.94117641;stroke-dasharray:none"
     inkscape:label="part" />
  <path
     id="path11147"
     d="M 836.220472438,559.693854845 L 836.220472438,596.348596366 L 857.480314957,596.348596366 L 857.480314957,559.693854845 L 836.220472438,559.693854845 "
     style="stroke:#000000;stroke-width:0.07086614;fill:none;stroke-miterlimit:4.94117641;stroke-dasharray:none"
     inkscape:label="part" />
  <path
     id="path11149"
     d="M 836.220472438,633.641133174 L 836.220472438,670.295874695 L 857.480314957,670.295874695 L 857.480314957,633.641133174 L 836.220472438,633.641133174 "
     style="stroke:#000000;stroke-width:0.07086614;fill:none;stroke-miterlimit:4.94117641;stroke-dasharray:none"
     inkscape:label="part" />
  <path
     id="path11151"
     d="M 836.220472438,707.588411503 L 836.220472438,744.243153024 L 857.480314957,744.243153024 L 857.480314957,707.588411503 L 836.220472438,707.588411503 "
     style="stroke:#000000;stroke-width:0.07086614;fill:none;stroke-miterlimit:4.94117641;stroke-dasharray:none"
     inkscape:label="part" />
  <path
     id="path11153"
     d="M 836.220472438,781.535689832 L 836.220472438,818.190431353 L 857.480314957,818.190431353 L 857.480314957,781.535689832 L 836.220472438,781.535689832 "
     style="stroke:#000000;stroke-width:0.07086614;fill:none;stroke-miterlimit:4.94117641;stroke-dasharray:none"
     inkscape:label="part" />
  <path
     id="path11155"
     d="M 836.220472438,855.482968161 L 836.220472438,892.137709682 L 857.480314957,892.137709682 L 857.480314957,855.482968161 L 836.220472438,855.482968161 "
     style="stroke:#000000;stroke-width:0.07086614;fill:none;stroke-miterlimit:4.94117641;stroke-dasharray:none"
     inkscape:label="part" />
  <path
     id="path11157"
     d="M 836.220472438,929.43024649 L 836.220472438,966.084988011 L 857.480314957,966.084988011 L 857.480314957,929.43024649 L 836.220472438,929.43024649 "
     style="stroke:#000000;stroke-width:0.07086614;fill:none;stroke-miterlimit:4.94117641;stroke-dasharray:none"
     inkscape:label="part" />
  <path
     id="path11159"
     d="M 836.220472438,1003.37752482 L 836.220472438,1040.03226634 L 857.480314957,1040.03226634 L 857.480314957,1003.37752482 L 836.220472438,1003.37752482 "
     style="stroke:#000000;stroke-width:0.07086614;fill:none;stroke-miterlimit:4.94117641;stroke-dasharray:none"
     inkscape:label="part" />
  <path
     id="path11161"
     d="M 1466.92913385,226.771653542 L 1466.92913385,263.904741529 L 1445.66929133,263.904741529 L 1445.66929133,300.55948305 L 1466.92913385,300.55948305 L 1466.92913385,337.852019858 L 1445.66929133,337.852019858 L 1445.66929133,374.506761379 L 1466.92913385,374.506761379 L 1466.92913385,411.799298187 L 1445.66929133,411.799298187 L 1445.66929133,448.454039708 L 1466.92913385,448.454039708 L 1466.92913385,485.746576516 L 1445.66929133,485.746576516 L 1445.66929133,522.401318037 L 1466.92913385,522.401318037 L 1466.92913385,559.693854845 L 1445.66929133,559.693854845 L 1445.66929133,596.348596366 L 1466.92913385,596.348596366 L 1466.92913385,633.641133174 L 1445.66929133,633.641133174 L 1445.66929133,670.295874695 L 1466.92913385,670.295874695 L 1466.92913385,707.588411503 L 1445.66929133,707.588411503 L 1445.66929133,744.243153024 L 1466.92913385,744.243153024 L 1466.92913385,781.535689832 L 1445.66929133,781.535689832 L 1445.66929133,818.190431353 L 1466.92913385,818.190431353 L 1466.92913385,855.482968161 L 1445.66929133,855.482968161 L 1445.66929133,892.137709682 L 1466.92913385,892.137709682 L 1466.92913385,929.43024649 L 1445.66929133,929.43024649 L 1445.66929133,966.084988011 L 1466.92913385,966.084988011 L 1466.92913385,1003.37752482 L 1445.66929133,1003.37752482 L 1445.66929133,1040.03226634 L 1466.92913385,1040.03226634 L 1466.92913385,1077.16535433 "
     style="stroke:#000000;stroke-width:0.07086614;fill:none;stroke-miterlimit:4.94117641;stroke-dasharray:none"
     inkscape:label="part" />
  <path
     id="path11163"
     d="M 1466.92913385,1077.16535433 L 1431.33661416,1077.16535433 L 1431.33661416,1055.90551181 L 1396.22244094,1055.90551181 L 1396.22244094,1077.16535433 L 1360.47047243,1077.16535433 L 1360.47047243,1055.90551181 L 1325.35629921,1055.90551181 L 1325.35629921,1077.16535433 L 1289.6043307,1077.16535433 L 1289.6043307,1055.90551181 L 1254.49015748,1055.90551181 L 1254.49015748,1077.16535433 L 1218.73818897,1077.16535433 L 1218.73818897,1055.90551181 L 1183.62401575,1055.90551181 L 1183.62401575,1077.16535433 L 1147.87204724,1077.16535433 L 1147.87204724,1055.90551181 L 1112.75787401,1055.90551181 L 1112.75787401,1077.16535433 L 1077.0059055,1077.16535433 L 1077.0059055,1055.90551181 L 1041.89173228,1055.90551181 L 1041.89173228,1077.16535433 L 1006.13976377,1077.16535433 L 1006.13976377,1055.90551181 L 971.02559055,1055.90551181 L 971.02559055,1077.16535433 L 935.27362204,1077.16535433 L 935.27362204,1055.90551181 L 900.159448818,1055.90551181 L 900.159448818,1077.16535433 L 864.407480308,1077.16535433 L 864.407480308,1055.90551181 L 829.293307086,1055.90551181 L 829.293307086,1077.16535433 L 793.541338576,1077.16535433 L 793.541338576,1055.90551181 L 758.427165354,1055.90551181 L 758.427165354,1077.16535433 L 722.675196844,1077.16535433 L 722.675196844,1055.90551181 L 687.561023622,1055.90551181 L 687.561023622,1077.16535433 L 651.809055112,1077.16535433 L 651.809055112,1055.90551181 L 616.69488189,1055.90551181 L 616.69488189,1077.16535433 L 580.94291338,1077.16535433 L 580.94291338,1055.90551181 L 545.828740158,1055.90551181 L 545.828740158,1077.16535433 L 510.076771648,1077.16535433 L 510.076771648,1055.90551181 L 474.962598426,1055.90551181 L 474.962598426,1077.16535433 L 439.210629916,1077.16535433 L 439.210629916,1055.90551181 L 404.096456694,1055.90551181 L 404.096456694,1077.16535433 L 368.344488184,1077.16535433 L 368.344488184,1055.90551181 L 333.230314962,1055.90551181 L 333.230314962,1077.16535433 L 297.478346452,1077.16535433 L 297.478346452,1055.90551181 L 262.36417323,1055.90551181 L 262.36417323,1077.16535433 L 226.771653542,1077.16535433 "
     style="stroke:#000000;stroke-width:0.07086614;fill:none;stroke-miterlimit:4.94117641;stroke-dasharray:none"
     inkscape:label="part" />
  <path
     id="path11165"
     d="M 226.771653542,1077.16535433 L 226.771653542,1040.03226634 L 248.031496062,1040.03226634 L 248.031496062,1003.37752482 L 226.771653542,1003.37752482 L 226.771653542,966.084988011 L 248.031496062,966.084988011 L 248.031496062,929.43024649 L 226.771653542,929.43024649 L 226.771653542,892.137709682 L 248.031496062,892.137709682 L 248.031496062,855.482968161 L 226.771653542,855.482968161 L 226.771653542,818.190431353 L 248.031496062,818.190431353 L 248.031496062,781.535689832 L 226.771653542,781.535689832 L 226.771653542,744.243153024 L 248.031496062,744.243153024 L 248.031496062,707.588411503 L 226.771653542,707.588411503 L 226.771653542,670.295874695 L 248.031496062,670.295874695 L 248.031496062,633.641133174 L 226.771653542,633.641133174 L 226.771653542,596.348596366 L 248.031496062,596.348596366 L 248.031496062,559.693854845 L 226.771653542,559.693854845 L 226.771653542,522.401318037 L 248.031496062,522.401318037 L 248.031496062,485.746576516 L 226.771653542,485.746576516 L 226.771653542,448.454039708 L 248.031496062,448.454039708 L 248.031496062,411.799298187 L 226.771653542,411.799298187 L 226.771653542,374.506761379 L 248.031496062,374.506761379 L 248.031496062,337.852019858 L 226.771653542,337.852019858 L 226.771653542,300.55948305 L 248.031496062,300.55948305 L 248.031496062,263.904741529 L 226.771653542,263.904741529 L 226.771653542,226.771653542 "
     style="stroke:#000000;stroke-width:0.07086614;fill:none;stroke-miterlimit:4.94117641;stroke-dasharray:none"
     inkscape:label="part" />
  <path
     id="path11167"
     d="M 1495.27559055,248.031496062 L 1516.37598424,248.031496062 L 1516.37598424,226.771653542 L 1559.21456693,226.771653542 L 1559.21456693,248.031496062 L 1601.41535432,248.031496062 L 1601.41535432,226.771653542 L 1644.253937,226.771653542 L 1644.253937,248.031496062 L 1665.3543307,248.031496062 "
     style="stroke:#000000;stroke-width:0.07086614;fill:none;stroke-miterlimit:4.94117641;stroke-dasharray:none"
     inkscape:label="part" />
  <path
     id="path11171"
     d="M 1665.3543307,1055.90551181 L 1644.253937,1055.90551181 L 1644.253937,1077.16535433 L 1601.41535432,1077.16535433 L 1601.41535432,1055.90551181 L 1559.21456693,1055.90551181 L 1559.21456693,1077.16535433 L 1516.37598424,1077.16535433 L 1516.37598424,1055.90551181 L 1495.27559055,1055.90551181 "
     style="stroke:#000000;stroke-width:0.07086614;fill:none;stroke-miterlimit:4.94117641;stroke-dasharray:none"
     inkscape:label="part" />
  <path
     id="path11173"
     d="M 1495.27559055,1055.90551181 L 1495.27559055,1040.35116398 L 1474.01574803,1040.35116398 L 1474.01574803,1003.05862718 L 1495.27559055,1003.05862718 L 1495.27559055,966.403885655 L 1474.01574803,966.403885655 L 1474.01574803,929.111348846 L 1495.27559055,929.111348846 L 1495.27559055,892.456607326 L 1474.01574803,892.456607326 L 1474.01574803,855.164070517 L 1495.27559055,855.164070517 L 1495.27559055,818.509328997 L 1474.01574803,818.509328997 L 1474.01574803,781.216792188 L 1495.27559055,781.216792188 L 1495.27559055,744.562050668 L 1474.01574803,744.562050668 L 1474.01574803,707.269513859 L 1495.27559055,707.269513859 L 1495.27559055,670.614772339 L 1474.01574803,670.614772339 L 1474.01574803,633.32223553 L 1495.27559055,633.32223553 L 1495.27559055,596.66749401 L 1474.01574803,596.66749401 L 1474.01574803,559.374957201 L 1495.27559055,559.374957201 L 1495.27559055,522.720215681 L 1474.01574803,522.720215681 L 1474.01574803,485.427678872 L 1495.27559055,485.427678872 L 1495.27559055,448.772937351 L 1474.01574803,448.772937351 L 1474.01574803,411.480400543 L 1495.27559055,411.480400543 L 1495.27559055,374.825659022 L 1474.01574803,374.825659022 L 1474.01574803,337.533122214 L 1495.27559055,337.533122214 L 1495.27559055,300.878380693 L 1474.01574803,300.878380693 L 1474.01574803,263.585843885 L 1495.27559055,263.585843885 L 1495.27559055,248.031496062 "
     style="stroke:#000000;stroke-width:0.07086614;fill:none;stroke-miterlimit:4.94117641;stroke-dasharray:none"
     inkscape:label="part" />
  <path
     id="path11185"
     d="M 836.220472438,49.7657480343 L 836.220472438,91.9665354297 L 857.480314957,91.9665354297 L 857.480314957,49.7657480343 L 836.220472438,49.7657480343 "
     style="stroke:#000000;stroke-width:0.07086614;fill:none;stroke-miterlimit:4.94117641;stroke-dasharray:none"
     inkscape:label="part" />
  <path
     id="path11187"
     d="M 836.220472438,134.805118113 L 836.220472438,177.005905508 L 857.480314957,177.005905508 L 857.480314957,134.805118113 L 836.220472438,134.805118113 "
     style="stroke:#000000;stroke-width:0.07086614;fill:none;stroke-miterlimit:4.94117641;stroke-dasharray:none"
     inkscape:label="part" />
  <path
     id="path11189"
     d="M 1466.92913385,28.3464566928 L 1466.92913385,49.7657480343 L 1445.66929133,49.7657480343 L 1445.66929133,91.9665354297 L 1466.92913385,91.9665354297 L 1466.92913385,134.805118113 L 1445.66929133,134.805118113 L 1445.66929133,177.005905508 L 1466.92913385,177.005905508 L 1466.92913385,198.42519685 "
     style="stroke:#000000;stroke-width:0.07086614;fill:none;stroke-miterlimit:4.94117641;stroke-dasharray:none"
     inkscape:label="part" />
  <path
     id="path11191"
     d="M 1466.92913385,198.42519685 L 1431.65551181,198.42519685 L 1431.65551181,219.685039369 L 1395.9035433,219.685039369 L 1395.9035433,198.42519685 L 1360.78937008,198.42519685 L 1360.78937008,219.685039369 L 1325.03740157,219.685039369 L 1325.03740157,198.42519685 L 1289.92322834,198.42519685 L 1289.92322834,219.685039369 L 1254.17125983,219.685039369 L 1254.17125983,198.42519685 L 1219.05708661,198.42519685 L 1219.05708661,219.685039369 L 1183.3051181,219.685039369 L 1183.3051181,198.42519685 L 1148.19094488,198.42519685 L 1148.19094488,219.685039369 L 1112.43897637,219.685039369 L 1112.43897637,198.42519685 L 1077.32480315,198.42519685 L 1077.32480315,219.685039369 L 1041.57283464,219.685039369 L 1041.57283464,198.42519685 L 1006.45866142,198.42519685 L 1006.45866142,219.685039369 L 970.706692906,219.685039369 L 970.706692906,198.42519685 L 935.592519684,198.42519685 L 935.592519684,219.685039369 L 899.840551174,219.685039369 L 899.840551174,198.42519685 L 864.726377952,198.42519685 L 864.726377952,219.685039369 L 828.974409442,219.685039369 L 828.974409442,198.42519685 L 793.86023622,198.42519685 L 793.86023622,219.685039369 L 758.10826771,219.685039369 L 758.10826771,198.42519685 L 722.994094488,198.42519685 L 722.994094488,219.685039369 L 687.242125978,219.685039369 L 687.242125978,198.42519685 L 652.127952756,198.42519685 L 652.127952756,219.685039369 L 616.375984246,219.685039369 L 616.375984246,198.42519685 L 581.261811024,198.42519685 L 581.261811024,219.685039369 L 545.509842514,219.685039369 L 545.509842514,198.42519685 L 510.395669292,198.42519685 L 510.395669292,219.685039369 L 474.643700782,219.685039369 L 474.643700782,198.42519685 L 439.52952756,198.42519685 L 439.52952756,219.685039369 L 403.77755905,219.685039369 L 403.77755905,198.42519685 L 368.663385828,198.42519685 L 368.663385828,219.685039369 L 332.911417318,219.685039369 L 332.911417318,198.42519685 L 297.797244096,198.42519685 L 297.797244096,219.685039369 L 262.045275586,219.685039369 L 262.045275586,198.42519685 L 226.771653542,198.42519685 "
     style="stroke:#000000;stroke-width:0.07086614;fill:none;stroke-miterlimit:4.94117641;stroke-dasharray:none"
     inkscape:label="part" />
  <path
     id="path11193"
     d="M 226.771653542,198.42519685 L 226.771653542,177.005905508 L 248.031496062,177.005905508 L 248.031496062,134.805118113 L 226.771653542,134.805118113 L 226.771653542,91.9665354297 L 248.031496062,91.9665354297 L 248.031496062,49.7657480343 L 226.771653542,49.7657480343 L 226.771653542,28.3464566928 "
     style="stroke:#000000;stroke-width:0.07086614;fill:none;stroke-miterlimit:4.94117641;stroke-dasharray:none"
     inkscape:label="part" />
  <circle
     style="opacity:1;fill:none;fill-opacity:1;fill-rule:nonzero;stroke:#000000;stroke-width:0.07086614;stroke-linecap:butt;stroke-linejoin:round;stroke-miterlimit:4.94117641;stroke-dasharray:none;stroke-opacity:1"
     id="path7397"
     cx="1370.917"
     cy="262.47476"
     r="7.0511813" />
  <circle
     style="opacity:1;fill:none;fill-opacity:1;fill-rule:nonzero;stroke:#000000;stroke-width:0.07086614;stroke-linecap:butt;stroke-linejoin:round;stroke-miterlimit:4.94117641;stroke-dasharray:none;stroke-opacity:1"
     id="path7397-8"
     cx="1243.3579"
     cy="262.47476"
     r="7.0511813" />
  <circle
     style="opacity:1;fill:none;fill-opacity:1;fill-rule:nonzero;stroke:#000000;stroke-width:0.07086614;stroke-linecap:butt;stroke-linejoin:round;stroke-miterlimit:4.94117641;stroke-dasharray:none;stroke-opacity:1"
     id="path7397-1"
     cx="1370.917"
     cy="574.28571"
     r="7.0511813" />
  <circle
     style="opacity:1;fill:none;fill-opacity:1;fill-rule:nonzero;stroke:#000000;stroke-width:0.07086614;stroke-linecap:butt;stroke-linejoin:round;stroke-miterlimit:4.94117641;stroke-dasharray:none;stroke-opacity:1"
     id="path7397-8-4"
     cx="1243.3579"
     cy="574.28571"
     r="7.0511813" />
  <rect
     style="opacity:1;fill:none;fill-opacity:1;fill-rule:nonzero;stroke:#000000;stroke-width:0.07086614;stroke-linecap:butt;stroke-linejoin:round;stroke-miterlimit:4.94117641;stroke-dasharray:none;stroke-opacity:1"
     id="rect7448"
     width="42.448818"
     height="37.133858"
     x="1288.9241"
     y="155.13484" />
  <path
     style="opacity:1;fill:none;fill-opacity:1;fill-rule:nonzero;stroke:#000000;stroke-width:0.07086615;stroke-linecap:butt;stroke-linejoin:round;stroke-miterlimit:4.94117641;stroke-dasharray:none;stroke-opacity:1"
     d="m 226.77165,28.27559 0,-21.2598415 212.52757,0 0,21.2598415 815.10238,0 0,-21.2598415 212.5276,0 0,21.2598415"
     id="rect11277-3"
     inkscape:connector-curvature="0"
     sodipodi:nodetypes="cccccccc" />
  <path
     style="opacity:1;fill:none;fill-opacity:1;fill-rule:nonzero;stroke:#000000;stroke-width:0.07086615;stroke-linecap:butt;stroke-linejoin:round;stroke-miterlimit:4.94117641;stroke-dasharray:none;stroke-opacity:1"
     d="m 1446.8669,1342.0267 -191.2677,0 0,-21.2599 -815.10234,9e-4 0,21.2598 -191.26772,0"
     id="rect11277-32"
     inkscape:connector-curvature="0"
     sodipodi:nodetypes="cccccc" />
  <path
     style="opacity:1;fill:none;fill-opacity:1;fill-rule:nonzero;stroke:#000000;stroke-width:0.07086615;stroke-linecap:butt;stroke-linejoin:round;stroke-miterlimit:4.94117641;stroke-dasharray:none;stroke-opacity:1"
     d="m 1466.9292,1275.6614 0,21.2598 -212.5276,0 0,-21.2598 -815.10238,0 0,21.2598 -212.52757,0 0,-21.2598"
     id="rect11277-9"
     inkscape:connector-curvature="0"
     sodipodi:nodetypes="cccccccc" />
  <path
     style="opacity:1;fill:none;fill-opacity:1;fill-rule:nonzero;stroke:#000000;stroke-width:0.07086614;stroke-linecap:butt;stroke-linejoin:round;stroke-miterlimit:4.94117641;stroke-dasharray:none;stroke-opacity:1"
     d="m 1665.4252,248.10236 21.2598,0 0,177.16536 -21.2598,0 0,453.40159 21.2598,0 0,177.16539 -21.2598,0"
     id="rect11330-7"
     inkscape:connector-curvature="0"
     sodipodi:nodetypes="cccccccc" />
  <path
     style="opacity:1;fill:none;fill-opacity:1;fill-rule:nonzero;stroke:#000000;stroke-width:0.07086614;stroke-linecap:butt;stroke-linejoin:round;stroke-miterlimit:4.94117641;stroke-dasharray:none;stroke-opacity:1"
     d="m 28.27559,1055.8347 -21.2598415,0 0,-177.16539 21.2598415,0 0,-453.40159 -21.2598415,0 0,-177.16536 21.2598415,0"
     id="rect11330-70"
     inkscape:connector-curvature="0"
     sodipodi:nodetypes="cccccccc" />
  <path
     style="opacity:1;fill:none;fill-opacity:1;fill-rule:nonzero;stroke:#000000;stroke-width:0.07086614;stroke-linecap:butt;stroke-linejoin:round;stroke-miterlimit:4.94117641;stroke-dasharray:none;stroke-opacity:1"
     d="m 249.22935,1342.0975 0,177.1654 -21.25984,0 0,453.4017 21.25984,0 0,177.1653"
     id="rect11330-73"
     inkscape:connector-curvature="0"
     sodipodi:nodetypes="cccccc" />
  <g
     id="g4442">
    <path
       sodipodi:nodetypes="cccccc"
       inkscape:connector-curvature="0"
       id="rect11277-6"
       d="m 249.22913,2149.9006 191.26772,0 0,21.2599 815.10265,0 0,-21.2599 191.2677,0"
       style="opacity:1;fill:none;fill-opacity:1;fill-rule:nonzero;stroke:#000000;stroke-width:0.07086615;stroke-linecap:butt;stroke-linejoin:round;stroke-miterlimit:4.94117641;stroke-dasharray:none;stroke-opacity:1" />
  </g>
  <path
     style="opacity:1;fill:none;fill-opacity:1;fill-rule:nonzero;stroke:#000000;stroke-width:0.07086614;stroke-linecap:butt;stroke-linejoin:round;stroke-miterlimit:4.94117641;stroke-dasharray:none;stroke-opacity:1"
     d="m 1446.8673,2149.8299 0,-177.1653 21.2599,0 0,-453.4017 -21.2599,0 0,-177.1654"
     id="rect11330-8"
     inkscape:connector-curvature="0"
     sodipodi:nodetypes="cccccc" />
  <circle
     style="opacity:1;fill:none;fill-opacity:1;fill-rule:nonzero;stroke:#000000;stroke-width:0.07086614;stroke-linecap:butt;stroke-linejoin:round;stroke-miterlimit:4.94117641;stroke-dasharray:none;stroke-opacity:1"
     id="path11383"
     cx="347.99756"
     cy="1488.243"
     r="51.342518" />
  <circle
     style="opacity:1;fill:none;fill-opacity:1;fill-rule:nonzero;stroke:#000000;stroke-width:0.07086614;stroke-linecap:butt;stroke-linejoin:round;stroke-miterlimit:4.94117641;stroke-dasharray:none;stroke-opacity:1"
     id="path11383-5"
     cx="445.47723"
     cy="1578.6517"
     r="51.342518" />
  <circle
     style="opacity:1;fill:none;fill-opacity:1;fill-rule:nonzero;stroke:#000000;stroke-width:0.07086614;stroke-linecap:butt;stroke-linejoin:round;stroke-miterlimit:4.94117641;stroke-dasharray:none;stroke-opacity:1"
     id="path11383-50"
     cx="685.51794"
     cy="1628.4285"
     r="51.342518" />
  <circle
     style="opacity:1;fill:none;fill-opacity:1;fill-rule:nonzero;stroke:#000000;stroke-width:0.07086614;stroke-linecap:butt;stroke-linejoin:round;stroke-miterlimit:4.94117641;stroke-dasharray:none;stroke-opacity:1"
     id="path11383-9"
     cx="569.72601"
     cy="1574.611"
     r="51.342518" />
  <circle
     style="opacity:1;fill:none;fill-opacity:1;fill-rule:nonzero;stroke:#000000;stroke-width:0.07086614;stroke-linecap:butt;stroke-linejoin:round;stroke-miterlimit:4.94117641;stroke-dasharray:none;stroke-opacity:1"
     id="path11383-8"
     cx="686.90369"
     cy="1494.8091"
     r="51.342518" />
  <circle
     style="opacity:1;fill:none;fill-opacity:1;fill-rule:nonzero;stroke:#000000;stroke-width:0.07086614;stroke-linecap:butt;stroke-linejoin:round;stroke-miterlimit:4.94117641;stroke-dasharray:none;stroke-opacity:1"
     id="path11383-55"
     cx="866.61517"
     cy="1970.5908"
     r="51.342518" />
  <circle
     style="opacity:1;fill:none;fill-opacity:1;fill-rule:nonzero;stroke:#000000;stroke-width:0.07086614;stroke-linecap:butt;stroke-linejoin:round;stroke-miterlimit:4.94117641;stroke-dasharray:none;stroke-opacity:1"
     id="path11383-6"
     cx="314.15741"
     cy="1615.0173"
     r="51.342518" />
  <circle
     style="opacity:1;fill:none;fill-opacity:1;fill-rule:nonzero;stroke:#000000;stroke-width:0.07086614;stroke-linecap:butt;stroke-linejoin:round;stroke-miterlimit:4.94117641;stroke-dasharray:none;stroke-opacity:1"
     id="path11383-51"
     cx="570.73615"
     cy="1458.4436"
     r="51.342518" />
  <circle
     style="opacity:1;fill:none;fill-opacity:1;fill-rule:nonzero;stroke:#000000;stroke-width:0.07086614;stroke-linecap:butt;stroke-linejoin:round;stroke-miterlimit:4.94117641;stroke-dasharray:none;stroke-opacity:1"
     id="path11436"
     cx="1171.777"
     cy="1675.1212"
     r="42.484253" />
  <circle
     style="opacity:1;fill:none;fill-opacity:1;fill-rule:nonzero;stroke:#000000;stroke-width:0.07086614;stroke-linecap:butt;stroke-linejoin:round;stroke-miterlimit:4.94117641;stroke-dasharray:none;stroke-opacity:1"
     id="path11436-5"
     cx="1063.7062"
     cy="1675.1212"
     r="42.484253" />
  <circle
     style="opacity:1;fill:none;fill-opacity:1;fill-rule:nonzero;stroke:#000000;stroke-width:0.07086614;stroke-linecap:butt;stroke-linejoin:round;stroke-miterlimit:4.94117641;stroke-dasharray:none;stroke-opacity:1"
     id="path11436-8"
     cx="1171.777"
     cy="1575.6213"
     r="42.484253" />
  <circle
     style="opacity:1;fill:none;fill-opacity:1;fill-rule:nonzero;stroke:#000000;stroke-width:0.07086614;stroke-linecap:butt;stroke-linejoin:round;stroke-miterlimit:4.94117641;stroke-dasharray:none;stroke-opacity:1"
     id="path11436-3"
     cx="1279.8479"
     cy="1675.1212"
     r="42.484253" />
  <circle
     style="opacity:1;fill:none;fill-opacity:1;fill-rule:nonzero;stroke:#000000;stroke-width:0.07086614;stroke-linecap:butt;stroke-linejoin:round;stroke-miterlimit:4.94117641;stroke-dasharray:none;stroke-opacity:1"
     id="path11436-7"
     cx="900.04596"
     cy="1413.9968"
     r="42.484253" />
  <circle
     style="opacity:1;fill:none;fill-opacity:1;fill-rule:nonzero;stroke:#000000;stroke-width:0.07086614;stroke-linecap:butt;stroke-linejoin:round;stroke-miterlimit:4.94117641;stroke-dasharray:none;stroke-opacity:1"
     id="path11436-1"
     cx="1013.1831"
     cy="1413.9968"
     r="42.484253" />
  <circle
     style="opacity:1;fill:none;fill-opacity:1;fill-rule:nonzero;stroke:#000000;stroke-width:0.07086614;stroke-linecap:butt;stroke-linejoin:round;stroke-miterlimit:4.94117641;stroke-dasharray:none;stroke-opacity:1"
     id="path11436-14"
     cx="1350.574"
     cy="1427.1288"
     r="42.484253" />
</svg>
