<?xml version="1.0" encoding="UTF-8" standalone="no"?>
<!-- Created with Inkscape (http://www.inkscape.org/) -->

<svg
   xmlns:dc="http://purl.org/dc/elements/1.1/"
   xmlns:cc="http://creativecommons.org/ns#"
   xmlns:rdf="http://www.w3.org/1999/02/22-rdf-syntax-ns#"
   xmlns:svg="http://www.w3.org/2000/svg"
   xmlns="http://www.w3.org/2000/svg"
   xmlns:sodipodi="http://sodipodi.sourceforge.net/DTD/sodipodi-0.dtd"
   xmlns:inkscape="http://www.inkscape.org/namespaces/inkscape"
   width="210mm"
   height="297mm"
   viewBox="0 0 744.09448819 1052.3622047"
   id="svg5394"
   version="1.1"
   inkscape:version="0.91 r13725"
   sodipodi:docname="left.svg">
  <defs
     id="defs5396" />
  <sodipodi:namedview
     id="base"
     pagecolor="#ffffff"
     bordercolor="#666666"
     borderopacity="1.0"
     inkscape:pageopacity="0.0"
     inkscape:pageshadow="2"
     inkscape:zoom="0.35"
     inkscape:cx="-283.57143"
     inkscape:cy="520"
     inkscape:document-units="px"
     inkscape:current-layer="layer1"
     showgrid="false"
     inkscape:window-width="2560"
     inkscape:window-height="1378"
     inkscape:window-x="-8"
     inkscape:window-y="-8"
     inkscape:window-maximized="1" />
  <metadata
     id="metadata5399">
    <rdf:RDF>
      <cc:Work
         rdf:about="">
        <dc:format>image/svg+xml</dc:format>
        <dc:type
           rdf:resource="http://purl.org/dc/dcmitype/StillImage" />
        <dc:title></dc:title>
      </cc:Work>
    </rdf:RDF>
  </metadata>
  <g
     inkscape:label="Layer 1"
     inkscape:groupmode="layer"
     id="layer1">
    <path
       inkscape:connector-curvature="0"
       id="path11121"
       d="m 43.567499,45.568041 21.10039,0 0,-21.25985 42.838581,0 0,21.25985 42.20078,0 0,-21.25985 42.83858,0 0,21.25985 21.1004,0"
       style="fill:none;stroke:#000000;stroke-width:0.07086614;stroke-miterlimit:4.94117641;stroke-dasharray:none"
       inkscape:label="part" />
    <path
       inkscape:connector-curvature="0"
       id="path11123"
       d="m 213.64623,45.568041 0,15.55434 21.25984,0 0,37.29254 -21.25984,0 0,36.654739 21.25984,0 0,37.29254 -21.25984,0 0,36.65474 21.25984,0 0,37.29254 -21.25984,0 0,36.65474 21.25984,0 0,37.29254 -21.25984,0 0,36.65474 21.25984,0 0,37.29253 -21.25984,0 0,36.65475 21.25984,0 0,37.29253 -21.25984,0 0,36.65474 21.25984,0 0,37.29254 -21.25984,0 0,36.65474 21.25984,0 0,37.29254 -21.25984,0 0,36.65474 21.25984,0 0,37.29254 -21.25984,0 0,36.65474 21.25984,0 0,37.29254 -21.25984,0 0,36.65471 21.25984,0 0,37.2926 -21.25984,0 0,15.5543"
       style="fill:none;stroke:#000000;stroke-width:0.07086614;stroke-miterlimit:4.94117641;stroke-dasharray:none"
       inkscape:label="part" />
    <path
       inkscape:connector-curvature="0"
       id="path11125"
       d="m 213.64623,853.44204 -21.1004,0 0,21.2599 -42.83858,0 0,-21.2599 -42.20078,0 0,21.2599 -42.838581,0 0,-21.2599 -21.10039,0"
       style="fill:none;stroke:#000000;stroke-width:0.07086614;stroke-miterlimit:4.94117641;stroke-dasharray:none"
       inkscape:label="part" />
    <path
       style="opacity:1;fill:none;fill-opacity:1;fill-rule:nonzero;stroke:#000000;stroke-width:0.07086614;stroke-linecap:butt;stroke-linejoin:round;stroke-miterlimit:4.94117641;stroke-dasharray:none;stroke-opacity:1"
       d="m 43.496629,853.37124 -21.25984,0 0,-177.16539 21.25984,0 0,-453.40159 -21.25984,0 0,-177.165359 21.25984,0"
       id="rect11330-70"
       inkscape:connector-curvature="0"
       sodipodi:nodetypes="cccccccc" />
  </g>
</svg>
