<?xml version="1.0" encoding="UTF-8" standalone="no"?>
<!-- Created with Inkscape (http://www.inkscape.org/) -->

<svg
   xmlns:dc="http://purl.org/dc/elements/1.1/"
   xmlns:cc="http://creativecommons.org/ns#"
   xmlns:rdf="http://www.w3.org/1999/02/22-rdf-syntax-ns#"
   xmlns:svg="http://www.w3.org/2000/svg"
   xmlns="http://www.w3.org/2000/svg"
   xmlns:sodipodi="http://sodipodi.sourceforge.net/DTD/sodipodi-0.dtd"
   xmlns:inkscape="http://www.inkscape.org/namespaces/inkscape"
   width="210mm"
   height="297mm"
   viewBox="0 0 744.09448819 1052.3622047"
   id="svg4206"
   version="1.1"
   inkscape:version="0.91 r13725"
   sodipodi:docname="mid_support.svg">
  <defs
     id="defs4208" />
  <sodipodi:namedview
     id="base"
     pagecolor="#ffffff"
     bordercolor="#666666"
     borderopacity="1.0"
     inkscape:pageopacity="0.0"
     inkscape:pageshadow="2"
     inkscape:zoom="0.98994949"
     inkscape:cx="-283.57143"
     inkscape:cy="634.28571"
     inkscape:document-units="px"
     inkscape:current-layer="layer1"
     showgrid="false"
     inkscape:window-width="2560"
     inkscape:window-height="1378"
     inkscape:window-x="-8"
     inkscape:window-y="-8"
     inkscape:window-maximized="1" />
  <metadata
     id="metadata4211">
    <rdf:RDF>
      <cc:Work
         rdf:about="">
        <dc:format>image/svg+xml</dc:format>
        <dc:type
           rdf:resource="http://purl.org/dc/dcmitype/StillImage" />
        <dc:title></dc:title>
      </cc:Work>
    </rdf:RDF>
  </metadata>
  <g
     inkscape:label="Layer 1"
     inkscape:groupmode="layer"
     id="layer1">
    <path
       id="path11131"
       d="m 180.75242,34.951646 0,15.5544 21.25984,0 0,37.2925 -21.25984,0 0,36.654694 21.25984,0 0,37.2926 -21.25984,0 0,36.6547 21.25984,0 0,37.2926 -21.25984,0 0,36.6547 21.25984,0 0,37.2925 -21.25984,0 0,36.6548 21.25984,0 0,37.2925 -21.25984,0 0,36.6548 21.25984,0 0,37.2925 -21.25984,0 0,36.6547 21.25984,0 0,37.2926 -21.25984,0 0,36.6547 21.25984,0 0,37.2925 -21.25984,0 0,36.6548 21.25984,0 0,37.2925 -21.25984,0 0,36.6548 21.25984,0 0,37.2925 -21.25984,0 0,36.6547 21.25984,0 0,37.2926 -21.25984,0 0,15.5543"
       style="fill:none;stroke:#000000;stroke-width:0.07086614;stroke-miterlimit:4.94117641;stroke-dasharray:none"
       inkscape:label="part"
       inkscape:connector-curvature="0" />
    <path
       id="path11133"
       d="m 180.75242,842.82564 -21.10039,0 0,21.2599 -42.83858,0 0,-21.2599 -42.200788,0 0,21.2599 -42.83859,0 0,-21.2599 -21.10039,0 0,-99.8828 159.448818,0 0,-141.7323 -159.448818,0 0,-386.2023 120.208148,0 0,-78.7919 -120.208148,0 0,-101.264694 21.10039,0 0,-21.2598 42.83859,0 0,21.2598 42.200788,0 0,-21.2598 42.83858,0 0,21.2598 21.10039,0"
       style="fill:none;stroke:#000000;stroke-width:0.07086614;stroke-miterlimit:4.94117641;stroke-dasharray:none"
       inkscape:label="part"
       inkscape:connector-curvature="0"
       sodipodi:nodetypes="cccccccccccccccccccccccccccc" />
  </g>
</svg>
